<?xml version="1.0" encoding="utf-8"?>
<svg viewBox="93.282 298.786 149.856 150.493" width="149.856" height="150.493" xmlns="http://www.w3.org/2000/svg">
  <g id="ubuntu" transform="matrix(0.09709600359201431, 0, 0, 0.09591000527143478, 101.15426635742188, 310.45086669921875)" style="">
    <g>
      <g>
        <path d="M168.839,241.198c0-38.117,17.894-72.05,45.685-93.896L171.988,79.22c-35.648,25.603-62.472,62.66-75.127,105.796&#10;&#9;&#9;&#9;&#9;c19.811,12.751,32.949,35.031,32.949,60.353c0,24.424-12.143,45.957-30.783,58.918c13.606,40.86,40.12,75.838,74.706,100.113&#10;&#9;&#9;&#9;&#9;l39.559-70.358C186.187,312.204,168.839,278.724,168.839,241.198z"/>
      </g>
    </g>
    <g>
      <path d="M109.704,245.368c0,28.484-23.132,51.592-51.609,51.592c-28.491,0-51.606-23.107-51.606-51.592&#10;&#9;&#9;&#9;c0-28.47,23.115-51.577,51.606-51.577C86.572,193.791,109.704,216.898,109.704,245.368z"/>
    </g>
    <g>
      <g>
        <path d="M399.494,370.126c12.002,0,23.301,2.936,33.23,8.149c30.924-32.591,50.906-75.595,54.211-123.228l-80.148-1.551&#10;&#9;&#9;&#9;&#9;c-6.171,60.111-56.954,106.941-118.677,106.941c-17.084,0-33.388-3.594-48.101-10.093l-39.841,69.704&#10;&#9;&#9;&#9;&#9;c26.56,13.069,56.376,20.411,87.941,20.411c13.622,0,26.981-1.379,39.854-4.006C330.709,399.381,361.68,370.126,399.494,370.126z&#10;&#9;&#9;&#9;&#9;"/>
      </g>
    </g>
    <g>
      <path d="M451.071,441.847c0,28.478-23.084,51.576-51.577,51.576c-28.493,0-51.594-23.098-51.594-51.576&#10;&#9;&#9;&#9;c0-28.5,23.101-51.592,51.594-51.592C427.987,390.255,451.071,413.347,451.071,441.847z"/>
    </g>
    <g>
      <g>
        <path d="M438.211,110.152c-11.677,8.269-25.968,13.163-41.399,13.163c-39.637,0-71.73-32.102-71.73-71.715&#10;&#9;&#9;&#9;&#9;c0-2.104,0.094-4.139,0.25-6.181c-12.05-2.307-24.503-3.491-37.222-3.491c-31.859,0-61.988,7.498-88.689,20.777l39.607,69.75&#10;&#9;&#9;&#9;&#9;c14.979-6.748,31.593-10.544,49.082-10.544c61.177,0,111.601,46.074,118.491,105.414l80.147-2.447&#10;&#9;&#9;&#9;&#9;C483.209,181.12,465.487,141.372,438.211,110.152z"/>
      </g>
    </g>
    <g>
      <path d="M448.374,51.601c0,28.492-23.038,51.592-51.561,51.592c-28.491,0-51.592-23.1-51.592-51.592&#10;&#9;&#9;&#9;C345.22,23.107,368.321,0,396.812,0C425.335,0,448.374,23.107,448.374,51.601z"/>
    </g>
  </g>
  <path fill-rule="evenodd" clip-rule="evenodd" d="M 169.749 383.849 L 169.749 428.782 C 169.749 428.782 177.123 423.768 185.092 418.221 L 185.092 394.585 C 185.092 382.444 188.786 378.522 198.779 371.168 C 201.919 368.853 206.739 365.306 211.503 361.804 L 211.503 339.786 C 211.503 339.786 191.678 354.359 183.435 360.432 C 173.442 367.79 169.749 371.708 169.749 383.849 Z M 190.101 443.352 L 190.101 398.419 C 190.101 386.278 193.793 382.361 203.785 375.002 C 212.032 368.929 231.854 354.356 231.854 354.356 L 231.854 393.563 C 231.854 394.687 231.864 395.761 231.876 396.789 C 231.969 407.648 232.014 413.441 220.803 421.84 C 211.538 428.778 190.101 443.352 190.101 443.352 Z" fill="#101010" style=""/>
  <rect x="93.282" y="298.786" width="149.856" height="150.493" style="fill: none;"/>
</svg>