<?xml version="1.0" encoding="utf-8"?>
<svg viewBox="97.767 94.821 149.856 150.493" width="149.856" height="150.493" xmlns="http://www.w3.org/2000/svg">
  <path fill-rule="evenodd" clip-rule="evenodd" d="M 174.234 179.884 L 174.234 224.817 C 174.234 224.817 181.608 219.803 189.577 214.256 L 189.577 190.62 C 189.577 178.479 193.271 174.557 203.264 167.203 C 206.404 164.888 211.224 161.341 215.988 157.839 L 215.988 135.821 C 215.988 135.821 196.163 150.394 187.92 156.467 C 177.927 163.825 174.234 167.743 174.234 179.884 Z M 194.586 239.387 L 194.586 194.454 C 194.586 182.313 198.278 178.396 208.27 171.037 C 216.517 164.964 236.339 150.391 236.339 150.391 L 236.339 189.598 C 236.339 190.722 236.349 191.796 236.361 192.824 C 236.454 203.683 236.499 209.476 225.288 217.875 C 216.023 224.813 194.586 239.387 194.586 239.387 Z" fill="#101010" style=""/>
  <rect x="97.767" y="94.821" width="149.856" height="150.493" style="fill: none;"/>
  <path d="M 122.326 127.433 L 115.646 115.867 C 119.922 110.515 126.503 107.082 133.886 107.082 C 142.429 107.082 149.896 111.673 153.961 118.521 L 134.921 118.521 C 134.58 118.493 134.233 118.475 133.883 118.475 C 128.33 118.475 123.65 122.287 122.322 127.432 L 122.326 127.433 Z M 142.24 121.895 L 155.613 121.895 C 156.648 124.535 157.22 127.41 157.22 130.417 C 157.22 143.215 146.915 153.604 134.152 153.747 L 143.695 137.218 C 145.04 135.287 145.827 132.942 145.827 130.417 C 145.827 127.084 144.454 124.064 142.24 121.895 Z M 125.411 130.417 C 125.411 125.743 129.214 121.942 133.886 121.942 C 138.559 121.942 142.362 125.745 142.362 130.417 C 142.362 135.089 138.559 138.892 133.886 138.892 C 129.214 138.892 125.411 135.089 125.411 130.417 Z M 137.085 141.919 L 130.407 153.49 C 119.172 151.81 110.556 142.118 110.556 130.417 C 110.556 126.261 111.644 122.359 113.549 118.978 L 123.074 135.477 C 124.982 139.537 129.112 142.358 133.885 142.358 C 134.993 142.358 136.063 142.205 137.085 141.923 L 137.086 141.919 L 137.085 141.919 Z" style=""/>
</svg>