<?xml version="1.0" encoding="utf-8"?>
<svg viewBox="0 0 500 500" width="500" height="500" xmlns="http://www.w3.org/2000/svg">
  <defs>
    <linearGradient id="a" x1="3.2173" y1="15" x2="44.7812" y2="15" gradientUnits="userSpaceOnUse" gradientTransform="matrix(1, 0, 0, 1, 371.647858, 226.000015)">
      <stop offset="0" stop-color="#d93025"/>
      <stop offset="1" stop-color="#ea4335"/>
    </linearGradient>
    <linearGradient id="b" x1="20.7219" y1="47.6791" x2="41.5039" y2="11.6837" gradientUnits="userSpaceOnUse" gradientTransform="matrix(1, 0, 0, 1, 371.647858, 226.000015)">
      <stop offset="0" stop-color="#fcc934"/>
      <stop offset="1" stop-color="#fbbc04"/>
    </linearGradient>
    <linearGradient id="c" x1="26.5981" y1="46.5015" x2="5.8161" y2="10.506" gradientUnits="userSpaceOnUse" gradientTransform="matrix(1, 0, 0, 1, 371.647858, 226.000015)">
      <stop offset="0" stop-color="#1e8e3e"/>
      <stop offset="1" stop-color="#34a853"/>
    </linearGradient>
  </defs>
  <g transform="matrix(1.489740014076233, 0, 0, 1.489740014076233, -160.04855346679688, -8.094365119934078)" style="">
    <circle cx="395.648" cy="249.995" r="12" style="fill:#fff"/>
    <path d="M 374.863 262 C 384.101 278 407.195 278 416.432 262 C 425.67 246 414.123 226 395.648 226 C 391.435 226 387.296 227.109 383.648 229.215 C 372.169 235.843 368.236 250.521 374.863 262 Z M 406.04 244 C 410.659 252 404.885 262 395.648 262 C 386.41 262 380.637 252 385.256 244 C 386.309 242.176 387.824 240.661 389.648 239.608 C 395.387 236.294 402.726 238.261 406.04 244 Z" style="fill:none"/>
    <path d="M 395.648 238 L 416.429 238 C 407.196 222.003 384.108 221.999 374.87 237.994 C 374.869 237.997 374.867 238 374.865 238.003 L 385.256 256 L 385.265 255.998 C 380.637 248.016 386.384 238.018 395.61 238 C 395.623 238 395.635 238 395.648 238 Z" style="fill:url(#a)"/>
    <circle cx="395.648" cy="250" r="9.5" style="fill:#1a73e8"/>
    <path d="M 406.039 256.003 L 395.649 274 C 414.119 274.002 425.666 254.009 416.433 238.012 C 416.431 238.009 416.43 238.006 416.428 238.003 L 395.647 238.003 L 395.644 238.012 C 404.87 237.995 410.656 247.971 406.058 255.97 C 406.052 255.981 406.046 255.992 406.039 256.003 Z" style="fill:url(#b)"/>
    <path d="M 385.256 256.003 L 374.866 238.006 C 365.628 254.001 377.169 273.997 395.64 274 C 395.643 274 395.647 274 395.65 274 L 406.041 256.003 L 406.034 255.996 C 401.436 263.995 389.904 264.017 385.275 256.036 C 385.269 256.025 385.263 256.014 385.256 256.003 L 385.256 256.003 Z" style="fill:url(#c)"/>
  </g>
  <path fill-rule="evenodd" clip-rule="evenodd" d="M 174.234 179.884 L 174.234 224.817 C 174.234 224.817 181.608 219.803 189.577 214.256 L 189.577 190.62 C 189.577 178.479 193.271 174.557 203.264 167.203 C 206.404 164.888 211.224 161.341 215.988 157.839 L 215.988 135.821 C 215.988 135.821 196.163 150.394 187.92 156.467 C 177.927 163.825 174.234 167.743 174.234 179.884 Z M 194.586 239.387 L 194.586 194.454 C 194.586 182.313 198.278 178.396 208.27 171.037 C 216.517 164.964 236.339 150.391 236.339 150.391 L 236.339 189.598 C 236.339 190.722 236.349 191.796 236.361 192.824 C 236.454 203.683 236.499 209.476 225.288 217.875 C 216.023 224.813 194.586 239.387 194.586 239.387 Z" fill="#101010" style=""/>
  <rect x="97.767" y="94.821" width="149.856" height="150.493" style="fill: none;"/>
  <path d="M 122.326 127.433 L 115.646 115.867 C 119.922 110.515 126.503 107.082 133.886 107.082 C 142.429 107.082 149.896 111.673 153.961 118.521 L 134.921 118.521 C 134.58 118.493 134.233 118.475 133.883 118.475 C 128.33 118.475 123.65 122.287 122.322 127.432 L 122.326 127.433 Z M 142.24 121.895 L 155.613 121.895 C 156.648 124.535 157.22 127.41 157.22 130.417 C 157.22 143.215 146.915 153.604 134.152 153.747 L 143.695 137.218 C 145.04 135.287 145.827 132.942 145.827 130.417 C 145.827 127.084 144.454 124.064 142.24 121.895 Z M 125.411 130.417 C 125.411 125.743 129.214 121.942 133.886 121.942 C 138.559 121.942 142.362 125.745 142.362 130.417 C 142.362 135.089 138.559 138.892 133.886 138.892 C 129.214 138.892 125.411 135.089 125.411 130.417 Z M 137.085 141.919 L 130.407 153.49 C 119.172 151.81 110.556 142.118 110.556 130.417 C 110.556 126.261 111.644 122.359 113.549 118.978 L 123.074 135.477 C 124.982 139.537 129.112 142.358 133.885 142.358 C 134.993 142.358 136.063 142.205 137.085 141.923 L 137.086 141.919 L 137.085 141.919 Z" style=""/>
  <g id="ubuntu" transform="matrix(0.09709600359201431, 0, 0, 0.09591000527143478, 101.15426635742188, 310.45086669921875)" style="">
    <g>
      <g>
        <path d="M168.839,241.198c0-38.117,17.894-72.05,45.685-93.896L171.988,79.22c-35.648,25.603-62.472,62.66-75.127,105.796&#10;&#9;&#9;&#9;&#9;c19.811,12.751,32.949,35.031,32.949,60.353c0,24.424-12.143,45.957-30.783,58.918c13.606,40.86,40.12,75.838,74.706,100.113&#10;&#9;&#9;&#9;&#9;l39.559-70.358C186.187,312.204,168.839,278.724,168.839,241.198z"/>
      </g>
    </g>
    <g>
      <path d="M109.704,245.368c0,28.484-23.132,51.592-51.609,51.592c-28.491,0-51.606-23.107-51.606-51.592&#10;&#9;&#9;&#9;c0-28.47,23.115-51.577,51.606-51.577C86.572,193.791,109.704,216.898,109.704,245.368z"/>
    </g>
    <g>
      <g>
        <path d="M399.494,370.126c12.002,0,23.301,2.936,33.23,8.149c30.924-32.591,50.906-75.595,54.211-123.228l-80.148-1.551&#10;&#9;&#9;&#9;&#9;c-6.171,60.111-56.954,106.941-118.677,106.941c-17.084,0-33.388-3.594-48.101-10.093l-39.841,69.704&#10;&#9;&#9;&#9;&#9;c26.56,13.069,56.376,20.411,87.941,20.411c13.622,0,26.981-1.379,39.854-4.006C330.709,399.381,361.68,370.126,399.494,370.126z&#10;&#9;&#9;&#9;&#9;"/>
      </g>
    </g>
    <g>
      <path d="M451.071,441.847c0,28.478-23.084,51.576-51.577,51.576c-28.493,0-51.594-23.098-51.594-51.576&#10;&#9;&#9;&#9;c0-28.5,23.101-51.592,51.594-51.592C427.987,390.255,451.071,413.347,451.071,441.847z"/>
    </g>
    <g>
      <g>
        <path d="M438.211,110.152c-11.677,8.269-25.968,13.163-41.399,13.163c-39.637,0-71.73-32.102-71.73-71.715&#10;&#9;&#9;&#9;&#9;c0-2.104,0.094-4.139,0.25-6.181c-12.05-2.307-24.503-3.491-37.222-3.491c-31.859,0-61.988,7.498-88.689,20.777l39.607,69.75&#10;&#9;&#9;&#9;&#9;c14.979-6.748,31.593-10.544,49.082-10.544c61.177,0,111.601,46.074,118.491,105.414l80.147-2.447&#10;&#9;&#9;&#9;&#9;C483.209,181.12,465.487,141.372,438.211,110.152z"/>
      </g>
    </g>
    <g>
      <path d="M448.374,51.601c0,28.492-23.038,51.592-51.561,51.592c-28.491,0-51.592-23.1-51.592-51.592&#10;&#9;&#9;&#9;C345.22,23.107,368.321,0,396.812,0C425.335,0,448.374,23.107,448.374,51.601z"/>
    </g>
  </g>
  <path fill-rule="evenodd" clip-rule="evenodd" d="M 169.749 383.849 L 169.749 428.782 C 169.749 428.782 177.123 423.768 185.092 418.221 L 185.092 394.585 C 185.092 382.444 188.786 378.522 198.779 371.168 C 201.919 368.853 206.739 365.306 211.503 361.804 L 211.503 339.786 C 211.503 339.786 191.678 354.359 183.435 360.432 C 173.442 367.79 169.749 371.708 169.749 383.849 Z M 190.101 443.352 L 190.101 398.419 C 190.101 386.278 193.793 382.361 203.785 375.002 C 212.032 368.929 231.854 354.356 231.854 354.356 L 231.854 393.563 C 231.854 394.687 231.864 395.761 231.876 396.789 C 231.969 407.648 232.014 413.441 220.803 421.84 C 211.538 428.778 190.101 443.352 190.101 443.352 Z" fill="#101010" style=""/>
  <rect x="93.282" y="298.786" width="149.856" height="150.493" style="fill: none;"/>
</svg>