<?xml version="1.0" encoding="utf-8"?>
<svg viewBox="308.181 200.356 167.49 49.168" width="167.49" height="49.168" xmlns="http://www.w3.org/2000/svg">
  <g transform="matrix(1, 0, 0, 1, -4.414332866668701, 49.032901763916016)">
    <path d="M 367.011 167.824 L 361.257 167.824 L 361.257 184.445 L 357.877 184.445 L 357.877 167.824 L 352.123 167.824 L 352.123 164.613 L 367.013 164.613 L 367.011 167.824 Z" fill="#FFFFFF"/>
    <path d="M 376.066 174.501 L 376.037 174.501 L 372.749 184.445 L 369.593 184.445 L 364.527 169.948 L 367.964 169.948 L 371.204 180.34 L 374.529 169.948 L 377.598 169.948 L 380.886 180.369 L 384.154 169.948 L 387.536 169.948 L 382.479 184.445 L 379.323 184.445 L 376.066 174.501 Z" fill="#FFFFFF"/>
    <path d="M 389.57 169.948 L 393.75 169.948 L 393.75 184.445 L 390.427 184.445 L 390.427 172.91 L 388.509 172.91 L 389.57 169.948 Z M 390.008 165.479 C 390.008 164.927 390.228 164.397 390.618 164.007 C 391.009 163.616 391.538 163.397 392.091 163.397 C 392.643 163.397 393.172 163.616 393.563 164.007 C 393.953 164.397 394.173 164.927 394.173 165.479 C 394.173 166.68 393.307 167.517 392.106 167.517 C 390.905 167.517 390.006 166.68 390.006 165.479 L 390.008 165.479 Z" fill="#FFFFFF"/>
    <path d="M 399.837 171.875 C 400.453 170.731 401.932 169.613 404.306 169.613 C 407.826 169.613 409.698 171.96 409.698 175.34 L 409.698 184.445 L 406.373 184.445 L 406.373 175.759 C 406.373 173.775 405.481 172.471 403.497 172.471 C 401.402 172.471 400.089 173.786 400.089 176.046 L 400.089 184.454 L 396.764 184.454 L 396.764 169.948 L 399.832 169.948 L 399.837 171.875 Z" fill="#FFFFFF"/>
    <path d="M 423.263 169.948 L 426.332 169.948 L 426.332 183.832 C 426.332 187.659 423.873 190.563 419.404 190.563 C 415.046 190.563 413.063 187.771 412.756 185.509 L 416.081 185.509 C 416.388 186.624 417.365 187.714 419.461 187.714 C 421.751 187.714 423.007 186.317 423.007 184.279 L 423.007 182.017 C 422.196 183.273 420.66 184.25 418.426 184.25 C 414.292 184.25 411.75 180.927 411.75 176.932 C 411.75 172.936 414.292 169.613 418.426 169.613 C 420.66 169.613 422.308 170.507 423.259 172.024 L 423.263 169.948 Z M 419.099 172.546 C 416.688 172.546 415.077 174.389 415.077 176.929 C 415.077 179.47 416.697 181.313 419.099 181.313 C 421.556 181.313 423.149 179.441 423.149 176.929 C 423.149 174.418 421.558 172.546 419.101 172.546 L 419.099 172.546 Z" fill="#FFFFFF"/>
    <path d="M 443.159 169.977 L 443.159 184.443 L 440.091 184.443 L 440.091 182.376 C 439.168 183.884 437.46 184.787 435.201 184.787 C 430.928 184.787 428.498 181.353 428.498 177.217 C 428.498 173.08 430.926 169.641 435.196 169.641 C 437.46 169.641 439.163 170.536 440.086 172.052 L 440.086 169.977 L 443.159 169.977 Z M 435.898 181.848 C 438.44 181.848 439.977 179.81 439.977 177.21 C 439.977 174.61 438.442 172.574 435.898 172.574 C 433.353 172.574 431.818 174.613 431.818 177.21 C 431.818 179.807 433.383 181.848 435.898 181.848 Z" fill="#FFFFFF"/>
    <path d="M 445.809 166.178 L 449.132 166.178 L 449.132 169.948 L 451.841 169.948 L 451.841 172.603 L 449.132 172.603 L 449.132 179.921 C 449.132 181.066 449.608 181.625 450.752 181.625 C 451.101 181.622 451.449 181.575 451.787 181.484 L 451.787 184.362 C 451.218 184.487 450.637 184.543 450.055 184.529 C 447.094 184.529 445.809 182.994 445.809 180.257 L 445.809 166.178 Z" fill="#FFFFFF"/>
    <path d="M 456.094 178.161 C 456.346 180.452 457.825 181.931 460.144 181.931 C 461.679 181.931 462.994 181.149 463.524 179.864 L 466.876 179.864 C 466.01 182.742 463.441 184.781 460.061 184.781 C 455.677 184.781 452.828 181.513 452.828 177.184 C 452.828 172.964 455.732 169.613 460.035 169.613 C 464.337 169.613 467.158 172.881 467.158 177.127 C 467.158 177.657 467.13 178.161 467.13 178.161 L 456.094 178.161 Z M 456.151 175.702 L 463.86 175.702 C 463.581 173.692 462.183 172.322 460.033 172.322 C 457.882 172.322 456.486 173.718 456.151 175.702 Z" fill="#FFFFFF"/>
    <path fill-rule="evenodd" clip-rule="evenodd" d="M 323.123 173.012 L 323.123 186.894 C 323.123 186.894 325.402 185.345 327.865 183.632 L 327.865 176.329 C 327.865 172.577 329.005 171.366 332.093 169.093 C 333.063 168.378 334.553 167.282 336.025 166.2 L 336.025 159.397 C 336.025 159.397 329.899 163.899 327.352 165.775 C 324.264 168.049 323.123 169.259 323.123 173.012 Z M 329.412 191.397 L 329.412 177.514 C 329.412 173.762 330.552 172.551 333.64 170.278 C 336.188 168.401 342.314 163.899 342.314 163.899 L 342.314 176.013 C 342.314 176.361 342.316 176.692 342.319 177.01 C 342.348 180.365 342.363 182.155 338.899 184.75 C 336.036 186.894 329.412 191.397 329.412 191.397 Z" fill="#FFFFFF"/>
  </g>
</svg>